<?xml version="1.0" encoding="UTF-8"?>
<svg version="1.1" xmlns="http://www.w3.org/2000/svg" width="1000" height="1000">
<path d="M0 0 C330 0 660 0 1000 0 C1000 330 1000 660 1000 1000 C670 1000 340 1000 0 1000 C0 670 0 340 0 0 Z " fill="#FEFEFE" transform="translate(0,0)"/>
<path d="M0 0 C158.73 0 317.46 0 481 0 C481 330 481 660 481 1000 C324.25 1000 167.5 1000 6 1000 C6 999.67 6 999.34 6 999 C6.68602798 998.97716446 7.37205597 998.95432892 8.07887268 998.93080139 C15.23316175 998.69191196 22.38725539 998.44770475 29.54125977 998.20043945 C32.20950138 998.10848699 34.87779114 998.01872951 37.54614258 997.92993164 C41.38636151 997.8019005 45.22638587 997.66899503 49.06640625 997.53515625 C50.25520889 997.49656998 51.44401154 997.4579837 52.6688385 997.41822815 C58.19336893 997.22120276 63.54493461 996.88529926 69 996 C70.40843044 995.90096375 71.81906659 995.82685708 73.23046875 995.7890625 C74.01486328 995.76271729 74.79925781 995.73637207 75.60742188 995.70922852 C76.45884766 995.68143311 77.31027344 995.6536377 78.1875 995.625 C93.81025354 995.0139707 109.37337915 993.5475964 124.94403076 992.17962646 C127.99482623 991.91308376 131.04627664 991.65428881 134.09765625 991.39453125 C136.08598596 991.22191149 138.07427163 991.04878312 140.0625 990.875 C140.94744141 990.79967041 141.83238281 990.72434082 142.74414062 990.64672852 C145.99390602 990.35478819 148.89259885 990.03580038 152 989 C153.58913997 988.76248792 155.18389206 988.56158465 156.78076172 988.38330078 C157.7538327 988.27293488 158.72690369 988.16256897 159.72946167 988.04885864 C160.78553619 987.93218842 161.84161072 987.81551819 162.9296875 987.6953125 C164.02983185 987.5706662 165.1299762 987.4460199 166.26345825 987.31759644 C169.80029972 986.91698676 173.33758467 986.52050837 176.875 986.125 C197.7689455 983.78850421 218.5548308 981.08343211 239.3125 977.74609375 C241.82307067 977.34258474 244.33443879 976.94961493 246.84887695 976.57080078 C255.24234403 975.30580823 263.60072642 973.87866801 271.95776367 972.39550781 C274.19481028 971.99870331 276.43233295 971.60467108 278.66992188 971.2109375 C280.12765932 970.95343703 281.58534266 970.69563005 283.04296875 970.4375 C283.74372528 970.31342773 284.44448181 970.18935547 285.16647339 970.06152344 C289.769492 969.23917647 294.34932718 968.33974701 298.9152832 967.33203125 C301 967 301 967 306 967 C306 896.71 306 826.42 306 754 C291.83964663 757.16735621 291.83964663 757.16735621 277.75 760.625 C272.60418658 761.92947091 267.4196944 762.82347691 262.18310547 763.66455078 C254.48134223 764.90303314 246.79902234 766.24662437 239.11749268 767.60385132 C236.93966303 767.98857692 234.76158776 768.37188804 232.58349609 768.75512695 C231.17801787 769.00317997 229.7725814 769.25146968 228.3671875 769.5 C227.67368195 769.62260193 226.98017639 769.74520386 226.26565552 769.871521 C222.08703577 770.61496276 217.91704491 771.39544677 213.7494812 772.19837952 C206.4422368 773.60159929 199.1441946 774.72043875 191.75 775.5625 C184.83977059 776.36441654 177.9925277 777.31214629 171.13525391 778.48461914 C149.64231258 782.01768246 127.91487235 784.02336366 106.21990967 785.81640625 C103.93831649 786.00510143 101.65689896 786.19583068 99.37548828 786.38671875 C94.58426667 786.78624811 89.79225187 787.17555263 85 787.5625 C84.28770233 787.62075958 83.57540466 787.67901917 82.84152222 787.73904419 C78.18772447 788.11745378 73.53226694 788.46201383 68.87466431 788.79019165 C66.86589417 788.93680242 64.85776072 789.09228618 62.85018921 789.25448608 C35.4428078 791.45342445 8.03926399 791.27063344 -19.43896484 791.19561768 C-24.45434996 791.18475656 -29.4697078 791.1851509 -34.48510265 791.18575573 C-39.39189902 791.18548139 -44.29867846 791.17995998 -49.20546913 791.17275429 C-51.51225978 791.16962259 -53.8190523 791.16761346 -56.12584496 791.16686058 C-62.40995011 791.16255497 -68.6921724 791.12585121 -74.97567368 791.03689194 C-77.03256491 791.01180116 -79.08960372 790.9971164 -81.14664078 790.99167252 C-84.1892011 790.97978473 -87.22881525 790.92878217 -90.27075195 790.8684082 C-91.18156367 790.87223857 -92.09237539 790.87606894 -93.03078747 790.88001537 C-99.1266624 790.7013205 -99.1266624 790.7013205 -101.65820503 788.66840363 C-103.90012584 785.97580451 -105.56310752 783.05998849 -106.828125 779.8046875 C-109.32098083 773.99373772 -112.76749356 768.86265284 -116.1875 763.5625 C-128.20717506 744.46507392 -139.37078754 724.90112913 -150 705 C-150.49741699 704.07364746 -150.99483398 703.14729492 -151.50732422 702.19287109 C-166.69996785 673.8329443 -180.90512972 644.23233701 -189.41650391 613.11621094 C-190.27517505 610.00200111 -191.20837219 606.91006984 -192.125 603.8125 C-196.73659819 587.49012135 -200.8842409 570.6480516 -201.7890625 553.671875 C-201.90874622 551.12381298 -201.90874622 551.12381298 -202.47900391 549.21118164 C-214.01120981 500.26685695 -198.7372303 439.27851011 -183.4375 392.75 C-183.07350098 391.64261475 -182.70950195 390.53522949 -182.33447266 389.39428711 C-180.24593891 383.21067183 -177.86781273 377.28687395 -175.1003418 371.37646484 C-173.81935865 368.60985957 -172.73079604 365.8015289 -171.6875 362.9375 C-166.19393263 348.48702931 -159.49366804 334.75557954 -152.15673828 321.16210938 C-151.14458723 319.27025422 -150.16159552 317.36285749 -149.18359375 315.453125 C-142.19682005 301.88596712 -134.00549723 288.9814744 -126 276 C-125.43168457 275.07509766 -124.86336914 274.15019531 -124.27783203 273.19726562 C-116.64367364 260.80044704 -108.46392517 248.84336367 -100 237 C-99.43071777 236.20110352 -98.86143555 235.40220703 -98.27490234 234.57910156 C-91.37071234 224.90173848 -84.32826001 215.36066176 -77 206 C-76.08459343 204.82555356 -75.16923018 203.65107335 -74.25390625 202.4765625 C-71.95777998 199.53572093 -69.64932304 196.60495364 -67.33154297 193.68115234 C-66.44825705 192.56595124 -65.56704791 191.44910191 -64.68798828 190.33056641 C-63.46555862 188.77742211 -62.23300926 187.23225876 -61 185.6875 C-60.29875 184.80449219 -59.5975 183.92148438 -58.875 183.01171875 C-57 181 -57 181 -54 180 C-53.70867187 180.51796143 -53.41734375 181.03592285 -53.1171875 181.56958008 C-47.55588237 191.41881761 -42.0366311 201.10940621 -35 210 C-34.28199219 210.90878906 -33.56398438 211.81757813 -32.82421875 212.75390625 C-19.84495797 228.87150297 -5.97441996 241.34986619 11 253 C22.41962568 260.86433784 33.39545361 269.06035209 44 278 C45.36318359 279.14662109 45.36318359 279.14662109 46.75390625 280.31640625 C51.62817768 284.53087783 55.90569636 289.02966293 60 294 C60.61359375 294.72574219 61.2271875 295.45148438 61.859375 296.19921875 C81.73553777 320.2493757 97.14830225 349.52383013 107 379 C107.25128662 379.71655762 107.50257324 380.43311523 107.76147461 381.17138672 C112.75870046 395.60359052 115.1455317 410.85760488 117.25 425.9375 C117.41298584 427.09604492 117.57597168 428.25458984 117.74389648 429.44824219 C128.5357362 510.61940021 112.15459514 597.93987873 91.01098633 676.25439453 C90.03824499 679.85830605 89.0861592 683.46699174 88.140625 687.078125 C83.73527928 703.81982407 79.02562496 720.43240517 74 737 C74.46946045 736.05890381 74.9389209 735.11780762 75.42260742 734.14819336 C78.7339741 727.5153847 82.05297464 720.8867351 85.40205383 714.27287292 C94.40011969 696.49989104 103.16513973 678.73263716 110.96875 660.39550781 C112.35677147 657.17124962 113.82512203 653.99214984 115.3125 650.8125 C120.95632842 638.65408107 125.71783414 626.41899384 130.04711914 613.74487305 C131.13982162 610.59722918 132.27357059 607.46550525 133.40625 604.33203125 C136.08763947 596.83709968 138.55878655 589.2827632 140.9375 581.6875 C141.15343811 580.99978516 141.36937622 580.31207031 141.59185791 579.60351562 C145.40865809 567.39538092 148.58490275 555.10553088 151.39599609 542.62548828 C152.0888111 539.61395532 152.84159781 536.62184906 153.62426758 533.63256836 C157.32576502 519.20683645 159.56260341 504.708248 161.30761719 489.93505859 C161.62635613 487.23852717 161.9531726 484.54306592 162.28125 481.84765625 C162.49265613 480.09120217 162.70360941 478.33469352 162.9140625 476.578125 C163.00885895 475.79342834 163.1036554 475.00873169 163.20132446 474.20025635 C164.423153 463.80974258 165.15834613 453.49920284 165.203125 443.03515625 C165.21013931 441.93157272 165.21715363 440.8279892 165.22438049 439.69096375 C165.24178781 436.1481005 165.24823292 432.60540444 165.25 429.0625 C165.25067474 427.85203003 165.25134949 426.64156006 165.25204468 425.39440918 C165.23610278 407.40658111 164.8657925 389.79273531 162 372 C161.83371094 370.93716797 161.66742187 369.87433594 161.49609375 368.77929688 C153.4350314 318.89027768 134.09485321 273.7969779 103 234 C102.15451811 232.89876736 101.30948794 231.79718779 100.46484375 230.6953125 C95.09391628 223.7321665 89.49446603 217.01266257 83.69848633 210.3996582 C80.53157487 206.78390057 77.44683924 203.1244299 74.4375 199.375 C71.10970672 195.25952721 67.61253337 191.36286221 64 187.5 C58.73556893 181.86371953 53.81519114 176.0270681 49 170 C48.07940781 168.88175519 47.15746106 167.76462456 46.234375 166.6484375 C33.77606149 151.48745041 23.04480082 135.41443218 14 118 C13.67306152 117.38801758 13.34612305 116.77603516 13.00927734 116.14550781 C-0.35157559 90.95873022 -4.18794129 62.17074364 -4.18530273 34.05688477 C-4.18749836 31.43945255 -4.20574067 28.8224367 -4.22460938 26.20507812 C-4.28644166 8.20503719 -4.28644166 8.20503719 -2 2 C-1.34 1.34 -0.68 0.68 0 0 Z " fill="#FEFEFE" transform="translate(519,0)"/>
<path d="M0 0 C0.66 0 1.32 0 2 0 C1.89498169 0.85718628 1.89498169 0.85718628 1.7878418 1.73168945 C0.86081959 10.35684829 0.81387249 18.94930707 0.81469727 27.61352539 C0.81251917 30.1650483 0.79432666 32.71613172 0.77539062 35.26757812 C0.6789308 63.43077844 5.88553983 91.89482914 19 117 C19.38784668 117.75748535 19.77569336 118.5149707 20.17529297 119.29541016 C26.7378464 132.03598247 34.29625581 143.62801423 43 155 C43.474375 155.62600098 43.94875 156.25200195 44.4375 156.89697266 C53.1282797 168.33756937 62.54013529 179.16700017 72.25 189.75 C76.17876597 194.03821968 79.87381088 198.4656188 83.5234375 202.9921875 C85.88449471 205.85971754 88.30416331 208.66090249 90.75268555 211.45336914 C97.15046685 218.75041836 103.22195159 226.20184644 109 234 C109.74999268 235.00305176 109.74999268 235.00305176 110.51513672 236.02636719 C140.74333829 276.55733981 158.97588575 321.10871766 167 371 C167.16661133 372.02657715 167.33322266 373.0531543 167.50488281 374.11083984 C170.21036364 391.82529763 170.28500533 409.55593984 170.3125 427.4375 C170.31617584 428.58609497 170.31985168 429.73468994 170.32363892 430.91809082 C170.34891205 446.05872742 169.67682688 460.95271063 168 476 C167.85259228 477.37817082 167.70521068 478.75634443 167.55786133 480.13452148 C165.41643134 499.33220954 162.15144675 518.13630382 158 537 C157.73751465 538.19786133 157.73751465 538.19786133 157.46972656 539.41992188 C151.06068286 568.0641468 141.58673893 596.63886554 131 624 C130.69626465 624.78616699 130.3925293 625.57233398 130.07958984 626.38232422 C126.23369357 636.27888485 122.1601592 646.07099833 117.9375 655.8125 C117.55037842 656.70614258 117.16325684 657.59978516 116.7644043 658.52050781 C109.32538092 675.53547627 101.01425969 692.09431121 92.6875 708.6875 C91.48330695 711.09028596 90.27972963 713.49338014 89.07617188 715.89648438 C86.44598183 721.14711528 83.81403621 726.39686161 81.1804657 731.64579773 C80.11878546 733.76310621 79.05876206 735.88123107 78 738 C76.56544009 735.13088017 77.50535311 733.70936867 78.44140625 730.671875 C78.77487061 729.57311035 79.10833496 728.4743457 79.4519043 727.34228516 C79.81840088 726.15683105 80.18489746 724.97137695 80.5625 723.75 C81.31166474 721.27397202 82.05903814 718.79740139 82.8046875 716.3203125 C83.17819336 715.0818457 83.55169922 713.84337891 83.93652344 712.56738281 C88.04431565 698.78798433 91.58296922 684.87830314 94.8515625 670.87890625 C95.85311884 666.59354499 96.91529332 662.32756665 98 658.0625 C119.61436111 572.05759953 138.34027881 470.92292007 112 384 C111.78182617 383.2786084 111.56365234 382.5572168 111.33886719 381.81396484 C101.01056978 348.41820482 82.82653706 315.13648434 59.11328125 289.359375 C57 287 57 287 55.03515625 284.4609375 C51.72473374 280.45793139 47.63782447 277.46486002 43.57714844 274.25341797 C42.03350025 273.02662388 40.50482455 271.78106498 38.9765625 270.53515625 C30.73245487 263.86529393 22.10795694 257.8049942 13.34667969 251.83374023 C-10.44694658 235.53563973 -29.36525468 215.76649207 -44 191 C-44.90492188 189.53046875 -44.90492188 189.53046875 -45.828125 188.03125 C-46.37984375 187.1340625 -46.9315625 186.236875 -47.5 185.3125 C-47.9846875 184.52488281 -48.469375 183.73726562 -48.96875 182.92578125 C-50 181 -50 181 -50 179 C-54.09106343 182.00403042 -57.13680213 185.42540359 -60.1875 189.4375 C-60.66598389 190.05729736 -61.14446777 190.67709473 -61.63745117 191.31567383 C-62.62376882 192.59458332 -63.60757883 193.87543068 -64.58886719 195.15820312 C-65.86616158 196.82531539 -67.15507245 198.48351159 -68.4453125 200.140625 C-75.81343527 209.62434737 -82.91713496 219.30225246 -90 229 C-90.44311523 229.60392578 -90.88623047 230.20785156 -91.34277344 230.83007812 C-104.83468587 249.24691911 -117.15433647 268.49451147 -129 288 C-129.5367334 288.87736816 -130.0734668 289.75473633 -130.62646484 290.65869141 C-138.53735149 303.57953413 -138.53735149 303.57953413 -145.53515625 317.0078125 C-146.62267674 319.22925436 -147.74316414 321.38974797 -148.93359375 323.5546875 C-153.80539458 332.43660256 -158.13342946 341.49247937 -162.25 350.75 C-162.74516113 351.86189697 -163.24032227 352.97379395 -163.75048828 354.11938477 C-167.06855942 361.66283825 -170.09893593 369.28759492 -173 377 C-173.33902344 377.88461914 -173.67804688 378.76923828 -174.02734375 379.68066406 C-184.10574022 406.02934632 -190.63508627 433.00482158 -195.1875 460.8125 C-195.3424292 461.75287109 -195.4973584 462.69324219 -195.65698242 463.66210938 C-198.06860801 479.02719696 -199.32049827 494.20279326 -199.20581055 509.75415039 C-199.18738163 512.32903895 -199.18530329 514.90356736 -199.18554688 517.47851562 C-199.46872043 533.89235041 -199.46872043 533.89235041 -197 550 C-196.89712002 551.74895973 -196.81696677 553.49929731 -196.75 555.25 C-196.05470605 565.05033376 -193.75963018 574.57322579 -191.63330078 584.14550781 C-191.08588858 586.61287229 -190.55399407 589.08283776 -190.02734375 591.5546875 C-174.88452181 660.91356203 -135.71393739 726.12531202 -97.26977539 784.8203125 C-96 787 -96 787 -96 789 C-79.72977799 789.09548235 -63.45965308 789.1649365 -47.18921471 789.20724869 C-39.62637034 789.22745898 -32.06370625 789.2548508 -24.50097656 789.30175781 C7.23741448 789.49436868 38.84419987 789.2846031 70.5234375 787.171875 C72.37708357 787.04827984 72.37708357 787.04827984 74.26817703 786.92218781 C101.58282935 785.05377687 128.80442927 782.12865834 156 779 C157.12438477 778.87093262 158.24876953 778.74186523 159.40722656 778.60888672 C162.75118253 778.22282485 166.09445436 777.83136096 169.4375 777.4375 C170.91923706 777.26541016 170.91923706 777.26541016 172.4309082 777.08984375 C178.30544504 776.38810897 184.1256359 775.50477625 189.95678711 774.5065918 C194.05653055 773.82412347 198.16826908 773.24229894 202.28271484 772.65625 C217.27174282 770.51400393 232.13294652 767.85842962 247 765 C249.91454629 764.4420954 252.82919471 763.88472842 255.74389648 763.32763672 C257.507896 762.9902816 259.27173713 762.65209692 261.03540039 762.31298828 C266.45353792 761.27612144 271.87751327 760.32093597 277.33203125 759.4921875 C280.1846322 758.96593901 282.97570313 758.26589228 285.78540039 757.54833984 C289.77340414 756.56090115 293.79280643 755.72224221 297.8125 754.875 C299.0799707 754.60236328 299.0799707 754.60236328 300.37304688 754.32421875 C301.18451172 754.15277344 301.99597656 753.98132813 302.83203125 753.8046875 C303.56139893 753.64983887 304.2907666 753.49499023 305.04223633 753.33544922 C307 753 307 753 310 753 C310 823.29 310 893.58 310 966 C296.635 968.475 296.635 968.475 283 971 C278.648125 971.86625 274.29625 972.7325 269.8125 973.625 C260.23623887 975.48543076 250.69674809 976.94003181 241.0012207 978.01220703 C240.08171631 978.1151709 239.16221191 978.21813477 238.21484375 978.32421875 C237.42198975 978.40760498 236.62913574 978.49099121 235.81225586 978.5769043 C233.48115295 978.92761194 231.27377597 979.39362747 228.98413086 979.93652344 C223.05770491 981.28305401 217.0680962 981.96918775 211.0390625 982.69140625 C209.81271088 982.841577 208.58635925 982.99174774 207.32284546 983.14646912 C204.73957161 983.46194609 202.15603867 983.77530786 199.57226562 984.08666992 C195.64394097 984.56021673 191.71645489 985.04027307 187.7890625 985.52148438 C185.26827576 985.82850777 182.74744385 986.1351606 180.2265625 986.44140625 C179.06476471 986.58308731 177.90296692 986.72476837 176.70596313 986.8707428 C170.62104718 987.60234546 164.54306691 988.25180731 158.43334961 988.73838806 C155.89764489 989.0110043 153.45423564 989.46829111 150.9609375 990 C145.86563472 991.08282704 140.81343711 991.5939243 135.625 992 C134.6460376 992.08048584 133.6670752 992.16097168 132.65844727 992.24389648 C129.43957514 992.50446344 126.21999317 992.75369014 123 993 C121.8651416 993.08781738 120.7302832 993.17563477 119.56103516 993.26611328 C106.38684768 994.27584722 93.21904856 995.18462192 80.01342773 995.65844727 C79.18786377 995.68994873 78.3622998 995.7214502 77.51171875 995.75390625 C76.80490967 995.77783447 76.09810059 995.8017627 75.36987305 995.82641602 C72.86720597 995.97786969 72.86720597 995.97786969 69.88354492 996.48193359 C65.03917239 997.12817478 60.23227229 997.34332365 55.3515625 997.53515625 C53.76894623 997.59989388 53.76894623 997.59989388 52.15435791 997.66593933 C-21.5613187 1000.59100053 -95.51308746 999.83508871 -169 993 C-169.85928101 992.92007813 -170.71856201 992.84015625 -171.60388184 992.7578125 C-183.0905177 991.67782911 -194.54841697 990.40122649 -206 989 C-207.26408691 988.84658142 -207.26408691 988.84658142 -208.55371094 988.69006348 C-249.21556769 983.74242061 -289.44390164 976.74349115 -329.57421875 968.56640625 C-330.28750336 968.42198593 -331.00078796 968.27756561 -331.73568726 968.12876892 C-334.56061167 967.54745854 -337.26031831 966.91322723 -340 966 C-340 895.71 -340 825.42 -340 753 C-314 758 -314 758 -302 761 C-299.00718263 761.50405345 -296.01413575 762.00756467 -293.015625 762.4765625 C-290.07053299 762.98775723 -287.21264294 763.65384146 -284.3125 764.375 C-276.87116389 766.14632283 -269.34471555 767.27144857 -261.78979492 768.4465332 C-254.7140665 769.55160768 -247.66611453 770.75559801 -240.625 772.0625 C-221.2723001 775.61550804 -201.92415208 778.11676188 -182.37240601 780.2756958 C-177.67128389 780.79936208 -172.98026294 781.38088639 -168.2890625 781.98828125 C-159.18676453 783.1379095 -150.0636252 784.02089923 -140.92797852 784.85986328 C-138.06906927 785.12439216 -135.21135977 785.40001362 -132.35351562 785.67578125 C-121.19890944 786.72101838 -110.20229765 787.25090173 -99 787 C-99.73138184 786.42209717 -100.46276367 785.84419434 -101.21630859 785.2487793 C-107.30867784 780.41166499 -112.79663923 775.36926636 -118.19921875 769.7734375 C-120.23572558 767.75681289 -122.24599418 765.91457836 -124.421875 764.06640625 C-130.43970584 758.85581947 -135.99278063 753.15597459 -141.60913086 747.52124023 C-143.5579687 745.56704376 -145.51209272 743.61824853 -147.46679688 741.66992188 C-153.52500659 735.61490165 -159.46740489 729.54561995 -165 723 C-166.4132355 721.4551874 -167.82940409 719.91304675 -169.25 718.375 C-173.87557884 713.25382343 -178.10024524 707.86882558 -182.32421875 702.41796875 C-184.58421374 699.50859598 -186.9326462 696.68755449 -189.3125 693.875 C-205.85004584 673.66570775 -220.12995565 650.74045844 -231 627 C-231.51167725 625.88455811 -231.51167725 625.88455811 -232.03369141 624.74658203 C-245.35608031 595.5289141 -254.26129609 566.51360689 -258.58276367 534.67871094 C-258.94587638 532.0786211 -258.94587638 532.0786211 -259.53222656 529.88232422 C-269.43066035 490.05094402 -257.64733775 440.8197714 -248 402 C-247.80937988 401.21592773 -247.61875977 400.43185547 -247.42236328 399.62402344 C-243.8284886 384.86177273 -239.18035345 370.11692243 -233.73950195 355.93334961 C-232.92034162 353.79174158 -232.13422041 351.63958257 -231.3515625 349.484375 C-231.06796875 348.70707031 -230.784375 347.92976563 -230.4921875 347.12890625 C-229.92000619 345.55927373 -229.34965362 343.98897321 -228.78125 342.41796875 C-218.3817491 313.98329736 -205.51988317 286.07739858 -191.26464844 259.38525391 C-190.03761189 257.0709398 -188.83153959 254.74705258 -187.6328125 252.41796875 C-180.88257873 239.33817198 -173.52202873 226.64900407 -166 214 C-165.17290527 212.60056152 -165.17290527 212.60056152 -164.32910156 211.17285156 C-154.17637666 194.02912899 -143.15807966 177.49778749 -132 161 C-131.42588379 160.14728516 -130.85176758 159.29457031 -130.26025391 158.41601562 C-122.82338002 147.37641115 -114.95410782 136.67108265 -107 126 C-106.46697266 125.28247559 -105.93394531 124.56495117 -105.38476562 123.82568359 C-94.76263376 109.52845403 -83.7360162 95.59213383 -72.46777344 81.79980469 C-71.18503868 80.22689706 -69.90840587 78.64901716 -68.6328125 77.0703125 C-62.81017974 69.88266693 -56.75975554 62.90526188 -50.68066406 55.93505859 C-49.04670536 54.05377494 -47.42385651 52.16354996 -45.8046875 50.26953125 C-38.36796998 41.58706917 -30.65205701 33.21260506 -22.79589844 24.90917969 C-20.02508644 21.96359108 -17.29466833 18.98138343 -14.5625 16 C-10.62889365 11.71086869 -6.61030592 7.53418813 -2.42578125 3.48828125 C-0.89580802 2.03812658 -0.89580802 2.03812658 0 0 Z " fill="#0202FE" transform="translate(515,1)"/>
<path d="M0 0 C0.66 0 1.32 0 2 0 C1.89498169 0.85718628 1.89498169 0.85718628 1.7878418 1.73168945 C0.86081959 10.35684829 0.81387249 18.94930707 0.81469727 27.61352539 C0.81251917 30.1650483 0.79432666 32.71613172 0.77539062 35.26757812 C0.6789308 63.43077844 5.88553983 91.89482914 19 117 C19.38784668 117.75748535 19.77569336 118.5149707 20.17529297 119.29541016 C26.7378464 132.03598247 34.29625581 143.62801423 43 155 C43.474375 155.62600098 43.94875 156.25200195 44.4375 156.89697266 C53.1282797 168.33756937 62.54013529 179.16700017 72.25 189.75 C76.17876597 194.03821968 79.87381088 198.4656188 83.5234375 202.9921875 C85.88449471 205.85971754 88.30416331 208.66090249 90.75268555 211.45336914 C97.15046685 218.75041836 103.22195159 226.20184644 109 234 C109.74999268 235.00305176 109.74999268 235.00305176 110.51513672 236.02636719 C140.74333829 276.55733981 158.97588575 321.10871766 167 371 C167.16661133 372.02657715 167.33322266 373.0531543 167.50488281 374.11083984 C170.21036364 391.82529763 170.28500533 409.55593984 170.3125 427.4375 C170.31617584 428.58609497 170.31985168 429.73468994 170.32363892 430.91809082 C170.34891205 446.05872742 169.67682688 460.95271063 168 476 C167.85259228 477.37817082 167.70521068 478.75634443 167.55786133 480.13452148 C165.41643134 499.33220954 162.15144675 518.13630382 158 537 C157.73751465 538.19786133 157.73751465 538.19786133 157.46972656 539.41992188 C151.06068286 568.0641468 141.58673893 596.63886554 131 624 C130.69626465 624.78616699 130.3925293 625.57233398 130.07958984 626.38232422 C126.23369357 636.27888485 122.1601592 646.07099833 117.9375 655.8125 C117.55037842 656.70614258 117.16325684 657.59978516 116.7644043 658.52050781 C109.32538092 675.53547627 101.01425969 692.09431121 92.6875 708.6875 C91.48330695 711.09028596 90.27972963 713.49338014 89.07617188 715.89648438 C86.44598183 721.14711528 83.81403621 726.39686161 81.1804657 731.64579773 C80.11878546 733.76310621 79.05876206 735.88123107 78 738 C76.56544009 735.13088017 77.50535311 733.70936867 78.44140625 730.671875 C78.77487061 729.57311035 79.10833496 728.4743457 79.4519043 727.34228516 C79.81840088 726.15683105 80.18489746 724.97137695 80.5625 723.75 C81.31166474 721.27397202 82.05903814 718.79740139 82.8046875 716.3203125 C83.17819336 715.0818457 83.55169922 713.84337891 83.93652344 712.56738281 C88.04431565 698.78798433 91.58296922 684.87830314 94.8515625 670.87890625 C95.85311884 666.59354499 96.91529332 662.32756665 98 658.0625 C119.61436111 572.05759953 138.34027881 470.92292007 112 384 C111.78182617 383.2786084 111.56365234 382.5572168 111.33886719 381.81396484 C101.01056978 348.41820482 82.82653706 315.13648434 59.11328125 289.359375 C57 287 57 287 55.03515625 284.4609375 C51.72473374 280.45793139 47.63782447 277.46486002 43.57714844 274.25341797 C42.03350025 273.02662388 40.50482455 271.78106498 38.9765625 270.53515625 C30.73245487 263.86529393 22.10795694 257.8049942 13.34667969 251.83374023 C-10.44694658 235.53563973 -29.36525468 215.76649207 -44 191 C-44.60328125 190.0203125 -45.2065625 189.040625 -45.828125 188.03125 C-46.37984375 187.1340625 -46.9315625 186.236875 -47.5 185.3125 C-47.9846875 184.52488281 -48.469375 183.73726562 -48.96875 182.92578125 C-50 181 -50 181 -50 179 C-54.09106343 182.00403042 -57.13680213 185.42540359 -60.1875 189.4375 C-60.66598389 190.05729736 -61.14446777 190.67709473 -61.63745117 191.31567383 C-62.62376882 192.59458332 -63.60757883 193.87543068 -64.58886719 195.15820312 C-65.86616158 196.82531539 -67.15507245 198.48351159 -68.4453125 200.140625 C-75.81343527 209.62434737 -82.91713496 219.30225246 -90 229 C-90.44311523 229.60392578 -90.88623047 230.20785156 -91.34277344 230.83007812 C-104.83468587 249.24691911 -117.15433647 268.49451147 -129 288 C-129.5367334 288.87736816 -130.0734668 289.75473633 -130.62646484 290.65869141 C-138.53735149 303.57953413 -138.53735149 303.57953413 -145.53515625 317.0078125 C-146.62267674 319.22925436 -147.74316414 321.38974797 -148.93359375 323.5546875 C-153.80539458 332.43660256 -158.13342946 341.49247937 -162.25 350.75 C-162.74516113 351.86189697 -163.24032227 352.97379395 -163.75048828 354.11938477 C-167.06855942 361.66283825 -170.09893593 369.28759492 -173 377 C-173.33902344 377.88461914 -173.67804688 378.76923828 -174.02734375 379.68066406 C-184.10574022 406.02934632 -190.63508627 433.00482158 -195.1875 460.8125 C-195.3424292 461.75287109 -195.4973584 462.69324219 -195.65698242 463.66210938 C-198.06860801 479.02719696 -199.32049827 494.20279326 -199.20581055 509.75415039 C-199.18738163 512.32903895 -199.18530329 514.90356736 -199.18554688 517.47851562 C-199.46872043 533.89235041 -199.46872043 533.89235041 -197 550 C-196.89712002 551.74895973 -196.81696677 553.49929731 -196.75 555.25 C-196.05470605 565.05033376 -193.75963018 574.57322579 -191.63330078 584.14550781 C-191.08588858 586.61287229 -190.55399407 589.08283776 -190.02734375 591.5546875 C-175.99636906 655.82095285 -140.78663679 714.90160168 -106.62109375 770.1875 C-106.02796387 771.14785156 -105.43483398 772.10820313 -104.82373047 773.09765625 C-103.55323853 775.11955827 -102.25862797 777.12642026 -100.94580078 779.12109375 C-100.29466309 780.11238281 -99.64352539 781.10367188 -98.97265625 782.125 C-98.378479 783.01445313 -97.78430176 783.90390625 -97.17211914 784.8203125 C-96.78531982 785.53960938 -96.39852051 786.25890625 -96 787 C-96.33 787.66 -96.66 788.32 -97 789 C-99.31 789 -101.62 789 -104 789 C-104 788.67 -104 788.34 -104 788 C-102.35 787.67 -100.7 787.34 -99 787 C-99.66644531 786.47792969 -100.33289063 785.95585938 -101.01953125 785.41796875 C-107.16794689 780.50783542 -112.73407229 775.43407132 -118.19921875 769.7734375 C-120.23572558 767.75681289 -122.24599418 765.91457836 -124.421875 764.06640625 C-130.43970584 758.85581947 -135.99278063 753.15597459 -141.60913086 747.52124023 C-143.5579687 745.56704376 -145.51209272 743.61824853 -147.46679688 741.66992188 C-153.52500659 735.61490165 -159.46740489 729.54561995 -165 723 C-166.4132355 721.4551874 -167.82940409 719.91304675 -169.25 718.375 C-173.87557884 713.25382343 -178.10024524 707.86882558 -182.32421875 702.41796875 C-184.58421374 699.50859598 -186.9326462 696.68755449 -189.3125 693.875 C-205.85004584 673.66570775 -220.12995565 650.74045844 -231 627 C-231.34111816 626.25637207 -231.68223633 625.51274414 -232.03369141 624.74658203 C-245.35608031 595.5289141 -254.26129609 566.51360689 -258.58276367 534.67871094 C-258.94587638 532.0786211 -258.94587638 532.0786211 -259.53222656 529.88232422 C-269.43066035 490.05094402 -257.64733775 440.8197714 -248 402 C-247.80937988 401.21592773 -247.61875977 400.43185547 -247.42236328 399.62402344 C-243.8284886 384.86177273 -239.18035345 370.11692243 -233.73950195 355.93334961 C-232.92034162 353.79174158 -232.13422041 351.63958257 -231.3515625 349.484375 C-231.06796875 348.70707031 -230.784375 347.92976563 -230.4921875 347.12890625 C-229.92000619 345.55927373 -229.34965362 343.98897321 -228.78125 342.41796875 C-218.3817491 313.98329736 -205.51988317 286.07739858 -191.26464844 259.38525391 C-190.03761189 257.0709398 -188.83153959 254.74705258 -187.6328125 252.41796875 C-180.88257873 239.33817198 -173.52202873 226.64900407 -166 214 C-165.44860352 213.06704102 -164.89720703 212.13408203 -164.32910156 211.17285156 C-154.17637666 194.02912899 -143.15807966 177.49778749 -132 161 C-131.42588379 160.14728516 -130.85176758 159.29457031 -130.26025391 158.41601562 C-122.82338002 147.37641115 -114.95410782 136.67108265 -107 126 C-106.46697266 125.28247559 -105.93394531 124.56495117 -105.38476562 123.82568359 C-94.76263376 109.52845403 -83.7360162 95.59213383 -72.46777344 81.79980469 C-71.18503868 80.22689706 -69.90840587 78.64901716 -68.6328125 77.0703125 C-62.81017974 69.88266693 -56.75975554 62.90526188 -50.68066406 55.93505859 C-49.04670536 54.05377494 -47.42385651 52.16354996 -45.8046875 50.26953125 C-38.36796998 41.58706917 -30.65205701 33.21260506 -22.79589844 24.90917969 C-20.02508644 21.96359108 -17.29466833 18.98138343 -14.5625 16 C-10.62889365 11.71086869 -6.61030592 7.53418813 -2.42578125 3.48828125 C-0.89580802 2.03812658 -0.89580802 2.03812658 0 0 Z " fill="#0101FE" transform="translate(515,1)"/>
<path d="M0 0 C0.08636719 0.87140625 0.17273438 1.7428125 0.26171875 2.640625 C3.15120936 27.13502247 20.51969072 46.60833027 38.74975586 62.24633789 C42.91749484 65.88008513 46.85116553 69.70635754 50.75390625 73.62109375 C51.45845444 74.32468521 52.16300262 75.02827667 52.88890076 75.75318909 C54.36653367 77.23014648 55.84292457 78.70834742 57.31811523 80.18774414 C59.55666481 82.43165085 61.80050473 84.67016704 64.04492188 86.90820312 C65.48990404 88.35384618 66.93457592 89.79979945 68.37890625 91.24609375 C69.03951553 91.9046788 69.70012482 92.56326385 70.38075256 93.24180603 C104.69676697 127.72834495 129.30369365 170.59191947 136 219 C136.24107231 220.59952011 136.24107231 220.59952011 136.48701477 222.23135376 C137.74685529 230.94752134 138.33045314 239.45727365 138.37109375 248.27734375 C138.38234283 249.59049057 138.39359192 250.90363739 138.40518188 252.25657654 C138.43610881 256.48359203 138.4397985 260.71038803 138.4375 264.9375 C138.43767498 265.66076729 138.43784996 266.38403458 138.43803024 267.12921906 C138.43454839 291.39166491 137.44931424 315.09321044 133 339 C132.8354834 339.88689514 132.6709668 340.77379028 132.50146484 341.68756104 C128.76239675 361.655489 124.3765559 381.284739 118.64633179 400.77767944 C117.82748893 403.59315494 117.05894491 406.42050282 116.3046875 409.25390625 C107.53325343 442.00703933 95.59402556 473.55671978 83 505 C82.60248535 505.99394775 82.2049707 506.98789551 81.79541016 508.01196289 C81.40168213 508.99604126 81.40168213 508.99604126 81 510 C79.94444557 506.83333671 80.03407492 505.84983721 80.6809082 502.69067383 C80.85471512 501.8215889 81.02852203 500.95250397 81.20759583 500.05708313 C81.40334702 499.11656601 81.59909821 498.17604889 81.80078125 497.20703125 C81.99721725 496.2282048 82.19365326 495.24937836 82.39604187 494.2408905 C83.02761911 491.09657925 83.66909779 487.95441133 84.3125 484.8125 C86.78104427 472.72354538 89.21915803 460.72339513 90.59472656 448.45581055 C90.96502913 445.29820036 91.44569942 442.19293378 91.99609375 439.0625 C93.31951659 431.41433204 94.16641827 423.70715225 95.0625 416 C95.4045623 413.06213902 95.75013636 410.12471976 96.09765625 407.1875 C96.24726807 405.90230469 96.39687988 404.61710937 96.55102539 403.29296875 C97 400 97 400 97.49227905 398.15086365 C98.1107582 395.53079386 98.34249306 392.97601891 98.57250977 390.29321289 C98.67249771 389.13576065 98.77248566 387.97830841 98.87550354 386.78578186 C99.03187538 384.89828468 99.03187538 384.89828468 99.19140625 382.97265625 C99.24581816 382.32218763 99.30023006 381.67171902 99.35629082 381.00153923 C99.77190367 376.02291649 100.17132126 371.04309856 100.5625 366.0625 C100.62005463 365.32969818 100.67760925 364.59689636 100.73690796 363.84188843 C106.11897436 294.87902209 108.47103373 218.76897328 61.98046875 162.296875 C54.31216389 153.40345634 45.25309498 146.60264983 35.84765625 139.6796875 C17.65433741 126.23957809 3.60850514 110.34750857 -8 91 C-36.24314488 118.32383818 -57.79422569 157.44372999 -72.09130859 193.69677734 C-72.68760136 195.20817604 -73.29184698 196.71646622 -73.90478516 198.22119141 C-79.80659517 212.74253866 -83.47601616 227.75142824 -87 243 C-87.18046875 243.76296387 -87.3609375 244.52592773 -87.546875 245.31201172 C-88.53275702 249.52007062 -89.31132748 253.73369542 -90 258 C-90.20085205 259.16233154 -90.20085205 259.16233154 -90.40576172 260.34814453 C-92.90913637 275.30362571 -93.29406567 290.12358922 -93.3125 305.25 C-93.31774185 306.64502747 -93.31774185 306.64502747 -93.3230896 308.0682373 C-93.34288688 317.56464565 -93.19033374 326.77108783 -91.50170898 336.14599609 C-91.00937358 338.94667776 -90.6907966 341.71215477 -90.4296875 344.54296875 C-87.82709282 371.70559814 -80.60711575 398.16991011 -72 424 C-71.53762939 425.38759521 -71.53762939 425.38759521 -71.06591797 426.80322266 C-67.40480687 437.6887176 -63.35510445 448.37494625 -59 459 C-58.38388555 460.55720107 -57.76802085 462.11450096 -57.15234375 463.671875 C-54.80599225 469.54301462 -52.29429144 475.3373281 -49.75 481.125 C-49.03082397 482.76335815 -49.03082397 482.76335815 -48.29711914 484.43481445 C-45.21074493 491.41040075 -41.99675704 498.29314508 -38.46191406 505.05322266 C-36.60755545 508.62461712 -35.17405749 512.15072692 -34 516 C-39.11452255 511.00131158 -43.54048299 505.57741528 -48 500 C-48.41523926 499.4829248 -48.83047852 498.96584961 -49.25830078 498.43310547 C-65.62520788 478.01046002 -80.39090653 456.81036783 -93.66162109 434.26123047 C-94.78495442 432.36332582 -95.93087446 430.47881491 -97.08203125 428.59765625 C-119.64643168 390.92698353 -134.98987352 345.67655826 -139 302 C-139.08467529 301.1352002 -139.16935059 300.27040039 -139.2565918 299.37939453 C-140.05623264 290.38219112 -140.18617661 281.42580562 -140.18530273 272.40039062 C-140.18747863 269.89956344 -140.20567921 267.39918662 -140.22460938 264.8984375 C-140.27998515 249.37473142 -138.98005744 234.09079885 -135.8125 218.875 C-135.59891846 217.83569336 -135.38533691 216.79638672 -135.1652832 215.72558594 C-131.10596138 196.57583237 -125.4824012 178.08400764 -118 160 C-117.55068115 158.90292725 -117.55068115 158.90292725 -117.09228516 157.78369141 C-98.37682845 112.55897224 -69.98186507 72.48006626 -37.1953125 36.44140625 C-35.99971372 35.11178127 -34.81028442 33.77603166 -33.65454102 32.41162109 C-28.2404852 26.06329981 -22.369742 20.18362451 -16.47338867 14.28808594 C-14.66881833 12.48129534 -12.8724388 10.66660404 -11.07617188 8.8515625 C-9.9301757 7.70263784 -8.78370878 6.55418248 -7.63671875 5.40625 C-7.10028244 4.86262817 -6.56384613 4.31900635 -6.01115417 3.75891113 C-2.22886654 0 -2.22886654 0 0 0 Z " fill="#FEF213" transform="translate(474,248)"/>
<path d="M0 0 C0.33 0 0.66 0 1 0 C1.14695312 1.20914062 1.29390625 2.41828125 1.4453125 3.6640625 C3.52452598 19.37009645 7.85016366 31.51605496 18 44 C18.80179687 44.99257813 19.60359375 45.98515625 20.4296875 47.0078125 C26.20107213 54.02891927 32.34843373 60.68325654 38.60961914 67.26831055 C42.86226682 71.7443898 46.96886737 76.32361601 51 81 C51.83144531 81.96164062 52.66289063 82.92328125 53.51953125 83.9140625 C68.01807057 101.05543608 80.66121209 119.26192558 87 141 C87.19819336 141.67949707 87.39638672 142.35899414 87.60058594 143.05908203 C91.86165976 158.05906788 93.32856076 172.81417411 93.20581055 188.34765625 C93.18720148 190.7891657 93.18530408 193.23030101 93.18554688 195.671875 C93.1806422 197.23437829 93.17481853 198.79687903 93.16796875 200.359375 C93.16685593 201.08429138 93.1657431 201.80920776 93.16459656 202.55609131 C93.1353204 205.64027816 92.98300319 208.05099044 92 211 C91.73806434 213.05323184 91.51583747 215.11163267 91.31640625 217.171875 C91.13174805 219.00492188 91.13174805 219.00492188 90.94335938 220.875 C90.69101142 223.44247865 90.44098203 226.01018631 90.19335938 228.578125 C89.57989156 234.63015984 88.78274651 240.1704867 87 246 C86.70671133 247.79173356 86.43155762 249.58646947 86.16796875 251.3828125 C84.88547992 259.40179511 82.58759692 267.09336179 80.3125 274.875 C79.86158288 276.432329 79.41081933 277.98970248 78.96020508 279.54711914 C76.44713774 288.20064562 73.8873679 296.84020701 71.1875 305.4375 C70.93460205 306.25009277 70.6817041 307.06268555 70.42114258 307.89990234 C68.32513445 314.42912052 65.68237358 320.69328555 63 327 C62.18805032 328.95227207 61.37813007 330.90538951 60.5703125 332.859375 C55.82738761 344.29133422 51.02368894 355.68838253 46 367 C45.67 367 45.34 367 45 367 C45.40391362 361.34520928 46.41952845 356.17051689 47.875 350.6875 C49.77357557 343.52085144 50.97388169 336.34737206 51.96044922 329.00268555 C52.55485502 324.64532892 53.36727759 320.50004739 54.48681641 316.23925781 C56.36688963 308.03562718 57.09983516 299.53268621 58.18078613 291.19192505 C58.78908755 286.5161764 59.45949377 281.85219882 60.1484375 277.1875 C62.55539053 260.30373254 63.39776889 243.61691005 63.4375 226.5625 C63.44358276 225.57711243 63.44966553 224.59172485 63.45593262 223.57647705 C63.57161693 195.03167032 59.48511873 166.68888468 38.50585938 145.49023438 C36.88384464 143.88421979 35.25556203 142.28483404 33.625 140.6875 C17.21676666 124.59255606 7.6507493 106.10130397 -1 85 C-26.28095435 139.42773755 -35.86892998 197.33995791 -28 257 C-27.84076116 258.3565739 -27.68315404 259.71334054 -27.52734375 261.0703125 C-23.19666373 296.51638262 -13.21755741 334.21331383 2.06640625 366.48828125 C3 369 3 369 2 372 C-16.44256853 347.15999716 -32.98188982 320.89670347 -44.234375 291.95605469 C-44.91243915 290.22370457 -45.62557304 288.5051714 -46.34375 286.7890625 C-53.48766917 269.34141375 -58.94266625 249.99237972 -61.5625 231.3125 C-61.67529297 230.55517578 -61.78808594 229.79785156 -61.90429688 229.01757812 C-62.29251237 226.34778332 -62.64748839 223.67474964 -63 221 C-63.17281494 219.75782715 -63.34562988 218.5156543 -63.52368164 217.23583984 C-64.95951174 206.46975293 -65.36126992 195.8540474 -65.3125 185 C-65.31067719 184.15138397 -65.30885437 183.30276794 -65.30697632 182.42843628 C-65.25549623 168.11747477 -64.47788804 154.12033564 -62 140 C-61.82839355 139.02144043 -61.65678711 138.04288086 -61.47998047 137.03466797 C-53.00362958 90.38065088 -34.45241626 34.45241626 0 0 Z " fill="#FE0303" transform="translate(468,388)"/>
<path d="M0 0 C15.55555556 1.11111111 15.55555556 1.11111111 21.25 2.25 C30.04522831 3.9175445 38.89340062 5.21016085 47.75 6.5 C48.49287262 6.60820068 49.23574524 6.71640137 50.00112915 6.82788086 C53.66402847 7.36063724 57.3272499 7.89112401 60.99072266 8.41992188 C64.48818767 8.92505026 67.98448347 9.43784499 71.48046875 9.953125 C73.29944965 10.21895205 75.11845742 10.48459536 76.9375 10.75 C77.71512695 10.86537109 78.49275391 10.98074219 79.29394531 11.09960938 C85.20142988 11.95202298 91.02939724 12.45721793 97 13 C97 23.89 97 34.78 97 46 C84.03884825 45.11123531 71.26385716 44.07500758 58.4375 42 C57.41084229 41.8340332 56.38418457 41.66806641 55.32641602 41.49707031 C49.77154335 40.56276872 44.49654808 39.37413702 39 38 C39 44.93 39 51.86 39 59 C40.4540625 59.17015625 41.908125 59.3403125 43.40625 59.515625 C58.02419899 61.26443563 72.49150538 63.49555748 87 66 C87 76.56 87 87.12 87 98 C81.9798791 98 77.98399485 97.80505152 73.140625 96.9765625 C71.85929687 96.76 70.57796875 96.5434375 69.2578125 96.3203125 C67.92186043 96.08862565 66.585923 95.8568544 65.25 95.625 C63.92977452 95.40052923 62.60946244 95.17656725 61.2890625 94.953125 C53.84911208 93.68579878 46.42603318 92.35018785 39 91 C39 98.59 39 106.18 39 114 C41.97 114.33 44.94 114.66 48 115 C70.80009543 117.67336521 70.80009543 117.67336521 81.57421875 120.25390625 C86.67736377 121.36530956 91.8482933 122.14138222 97 123 C97 133.89 97 144.78 97 156 C79.80642356 154.58682933 63.19878641 151.8836809 46.3125 148.4375 C40.82726728 147.31880122 35.34496843 146.40874928 29.8125 145.5625 C19.82927701 143.97281481 9.91268808 141.98253762 0 140 C0 93.8 0 47.6 0 0 Z " fill="#FAFAFD" transform="translate(216,800)"/>
<path d="M0 0 C78.03072034 0 78.03072034 0 90.4375 12 C100.33299383 22.24669089 101.59760271 34.94872307 101.47192383 48.53515625 C101.11799791 60.34173702 98.28742463 69.54819039 91 79 C90.0409375 80.36125 90.0409375 80.36125 89.0625 81.75 C82.38042329 89.03953823 72.92984037 93.38265906 63.13061523 94.40283203 C59.13502505 94.48899164 55.18236169 94.43809662 51.1875 94.3125 C46.505625 94.209375 41.82375 94.10625 37 94 C37 111.49 37 128.98 37 147 C24.79 147 12.58 147 0 147 C0 98.49 0 49.98 0 0 Z " fill="#FBFBFD" transform="translate(456,822)"/>
<path d="M0 0 C12.87 0.99 25.74 1.98 39 3 C39 39.63 39 76.26 39 114 C44.61 114.33 50.22 114.66 56 115 C58.88685175 115.17622002 61.77361054 115.35399229 64.66015625 115.53515625 C65.91707275 115.61386963 67.17398926 115.69258301 68.46899414 115.77368164 C69.98485107 115.8689917 71.50070801 115.96430176 73.0625 116.0625 C77.991875 116.371875 82.92125 116.68125 88 117 C88 128.88 88 140.76 88 153 C81.25622107 153 76.31940053 152.98855049 70 152 C66.27742973 151.73946424 62.54739374 151.61548576 58.81835938 151.48242188 C52.27715083 151.19375905 45.82671139 150.39763899 39.3371582 149.55493164 C34.90795277 148.98112349 30.47282048 148.46840742 26.03515625 147.96484375 C24.54230666 147.79371615 23.0494681 147.62249229 21.55664062 147.45117188 C19.27895592 147.19018976 17.00114594 146.93060463 14.72290039 146.67456055 C12.4723488 146.4210935 10.22247503 146.16222391 7.97265625 145.90234375 C6.94012474 145.78825417 6.94012474 145.78825417 5.88673401 145.67185974 C1.11371541 145.11371541 1.11371541 145.11371541 0 144 C-0.09650437 142.13971966 -0.12187292 140.27572971 -0.12025452 138.41294861 C-0.12162918 137.19993576 -0.12300385 135.98692291 -0.12442017 134.7371521 C-0.12088056 133.38067603 -0.11724575 132.0242002 -0.11352539 130.66772461 C-0.11324352 129.24887596 -0.11340124 127.83002716 -0.1139679 126.41117859 C-0.11425589 122.54771199 -0.1083589 118.68427617 -0.10139394 114.82081676 C-0.09516067 110.78757427 -0.09455662 106.75433115 -0.09336853 102.72108459 C-0.09025514 95.07834532 -0.08204164 87.43562027 -0.07201904 79.79288727 C-0.06085816 71.09411981 -0.05534752 62.39535169 -0.05032361 53.69657886 C-0.03985903 35.79770952 -0.02151345 17.8988597 0 0 Z " fill="#F9F9FD" transform="translate(340,815)"/>
<path d="M0 0 C0.09387489 14.34386016 0.16392203 28.68767196 0.20724869 43.03177738 C0.22805179 49.69359084 0.25623574 56.3551413 0.30175781 63.0168457 C0.34547567 69.45540319 0.36919176 75.89376203 0.37950897 82.33245659 C0.38685396 84.77903809 0.40119594 87.22560971 0.42292023 89.67210579 C0.58976029 109.25399671 -0.01815026 127.72724128 -14.25 142.8125 C-28.70778208 156.30803369 -50.53111681 162 -70 162 C-70 153.09 -70 144.18 -70 135 C-65.05 134.01 -65.05 134.01 -60 133 C-50.51278544 128.81244509 -44.62608857 120.35096792 -40.7265625 111.04296875 C-39.48532697 107.55282799 -38.87438858 104.43047262 -38.84178162 100.72259521 C-38.82709839 99.45222412 -38.82709839 99.45222412 -38.81211853 98.15618896 C-38.80636307 97.23549622 -38.8006076 96.31480347 -38.79467773 95.36621094 C-38.78477814 94.39026978 -38.77487854 93.41432861 -38.76467896 92.40881348 C-38.7330997 89.1840253 -38.70832056 85.9592224 -38.68359375 82.734375 C-38.66302115 80.49806333 -38.64202459 78.26175553 -38.62062073 76.02545166 C-38.56543176 70.14004647 -38.51600842 64.25460637 -38.46777344 58.36914062 C-38.41753528 52.36324965 -38.36186128 46.35740936 -38.30664062 40.3515625 C-38.19909786 28.56775163 -38.09764422 16.78389676 -38 5 C-33.23166613 4.28421689 -28.46278476 3.57224319 -23.69335938 2.86376953 C-22.07145895 2.62229954 -20.44971213 2.37979547 -18.828125 2.13623047 C-16.49518969 1.78600427 -14.16172447 1.43951957 -11.828125 1.09375 C-11.10506165 0.9843811 -10.38199829 0.87501221 -9.63702393 0.7623291 C-6.36637662 0.28113798 -3.31685859 0 0 0 Z " fill="#FBFBFD" transform="translate(715,806)"/>
<path d="M0 0 C0 47.85 0 95.7 0 145 C-12.54 146.32 -25.08 147.64 -38 149 C-38 100.82 -38 52.64 -38 3 C-35.03005125 2.25751281 -32.82376392 1.84729871 -29.84765625 1.71875 C-28.68266602 1.66267578 -28.68266602 1.66267578 -27.49414062 1.60546875 C-26.69169922 1.57066406 -25.88925781 1.53585937 -25.0625 1.5 C-23.46989544 1.43058866 -21.87743538 1.35776383 -20.28515625 1.28125 C-19.23146851 1.23581055 -19.23146851 1.23581055 -18.15649414 1.18945312 C-4.61726804 0 -4.61726804 0 0 0 Z " fill="#FBFBFD" transform="translate(623,817)"/>
<path d="M0 0 C0 46.2 0 92.4 0 140 C-25.53571429 145.80357143 -25.53571429 145.80357143 -38 148 C-38.02332798 129.50277268 -38.04097868 111.00554833 -38.05181217 92.50830936 C-38.05697534 83.92032951 -38.06401844 75.33235877 -38.07543945 66.74438477 C-38.08538565 59.26184583 -38.09185327 51.77931349 -38.09408849 44.29676813 C-38.09539571 40.33235414 -38.09848226 36.36795905 -38.10573006 32.4035511 C-38.11248926 28.67639787 -38.11461717 24.94927143 -38.11310768 21.22211266 C-38.11338406 19.85024495 -38.11538978 18.4783764 -38.11920547 17.10651398 C-38.12414108 15.24139037 -38.12239794 13.37625256 -38.12025452 11.51112366 C-38.12117631 10.46488862 -38.1220981 9.41865358 -38.12304783 8.34071445 C-38 6 -38 6 -37 5 C-34.70105512 4.55709614 -32.39112849 4.17098336 -30.078125 3.80859375 C-29.38112488 3.69902847 -28.68412476 3.5894632 -27.96600342 3.47657776 C-26.48676422 3.24514573 -25.00719886 3.01579048 -23.52734375 2.78833008 C-21.27247164 2.44096181 -19.01903365 2.0852395 -16.765625 1.72851562 C-15.32820383 1.50470144 -13.89070607 1.28137853 -12.453125 1.05859375 C-11.44659882 0.89924599 -11.44659882 0.89924599 -10.41973877 0.73667908 C-6.8553979 0.19465788 -3.63601668 0 0 0 Z " fill="#FAFAFD" transform="translate(784,798)"/>
<path d="M0 0 C3.361875 -0.0825 6.72375 -0.165 10.1875 -0.25 C11.23832764 -0.28641602 12.28915527 -0.32283203 13.37182617 -0.36035156 C17.68595494 -0.41164622 20.2833731 -0.4294256 24.05078125 1.828125 C28.34452681 6.61233849 28.43262538 9.82678499 28.3125 16.05078125 C27.75201468 21.34036145 25.38893649 23.83972988 21.4375 27.140625 C16.96255425 29.56116384 13.6026084 29.4547951 8.625 29.25 C4.355625 29.12625 4.355625 29.12625 0 29 C0 19.43 0 9.86 0 0 Z " fill="#0808FE" transform="translate(493,856)"/>
<path d="M0 0 C1.32 0.33 2.64 0.66 4 1 C1.525 6.94 1.525 6.94 -1 13 C-1.33 13 -1.66 13 -2 13 C-1.85769192 11.58297487 -1.71099254 10.1663904 -1.5625 8.75 C-1.48128906 7.96109375 -1.40007813 7.1721875 -1.31640625 6.359375 C-1.02365007 4.17635361 -0.57935581 2.1226818 0 0 Z " fill="#FE4242" transform="translate(515,742)"/>
<path d="M0 0 C1.73168001 6.11335517 -0.00728087 10.53503464 -3 16 C-4.57159226 12.85681547 -3.04018399 10.07066611 -2.0625 6.875 C-1.86720703 6.21628906 -1.67191406 5.55757812 -1.47070312 4.87890625 C-0.98695014 3.25066448 -0.49430925 1.62506818 0 0 Z " fill="#5050FE" transform="translate(596,723)"/>
<path d="M0 0 C0.33 0 0.66 0 1 0 C2.32854177 5.9180497 1.66464729 8.77729131 -1 14 C-2.15837573 10.52487282 -1.77265943 8.86329714 -1.0625 5.3125 C-0.86785156 4.31863281 -0.67320312 3.32476563 -0.47265625 2.30078125 C-0.31667969 1.54152344 -0.16070313 0.78226563 0 0 Z " fill="#FEF55F" transform="translate(556,744)"/>
<path d="M0 0 C2.96 4.44 2.96 4.44 4 7 C3.67 7.99 3.34 8.98 3 10 C-0.22265625 4.82421875 -0.22265625 4.82421875 -1 3 C-0.67 2.01 -0.34 1.02 0 0 Z " fill="#FE4040" transform="translate(467,750)"/>
</svg>
